<svg width="234" height="61" viewBox="0 0 234 61" fill="none" xmlns="http://www.w3.org/2000/svg">
<path d="M38.2442 27.5301V24.1056H33.0196V47.5504H38.5076V36.1792C38.5076 31.3937 41.1418 28.935 45.3127 28.935C45.7079 28.935 46.103 28.9789 46.586 29.0667V23.8422C42.6785 23.8422 39.8247 25.0715 38.2442 27.5301ZM59.3689 47.8577C66.657 47.8577 71.8816 42.8527 71.8816 35.828C71.8816 28.8033 66.657 23.8422 59.3689 23.8422C52.1686 23.8422 46.9001 28.8033 46.9001 35.828C46.9001 42.8527 52.1686 47.8577 59.3689 47.8577ZM59.3689 43.16C55.4176 43.16 52.4321 40.3062 52.4321 35.828C52.4321 31.3498 55.4176 28.496 59.3689 28.496C63.3642 28.496 66.3497 31.3498 66.3497 35.828C66.3497 40.3062 63.3642 43.16 59.3689 43.16ZM85.6908 47.8577C90.2569 47.8577 93.9009 45.882 95.701 42.3697L91.4862 39.9111C90.0813 42.1502 87.9739 43.16 85.6469 43.16C81.6078 43.16 78.5345 40.394 78.5345 35.828C78.5345 31.3059 81.6078 28.496 85.6469 28.496C87.9739 28.496 90.0813 29.5058 91.4862 31.7449L95.701 29.2863C93.9009 25.73 90.2569 23.8422 85.6908 23.8422C78.271 23.8422 73.0025 28.8033 73.0025 35.828C73.0025 42.8527 78.271 47.8577 85.6908 47.8577ZM111.107 42.3697C110.272 43.0283 109.175 43.3356 108.033 43.3356C105.926 43.3356 104.784 42.1063 104.784 39.8233V28.6716H111.063V24.2812H104.784V18.9249H99.2963V24.2812H95.4328V28.6716H99.2963V39.955C99.2963 45.1357 102.238 47.8577 107.375 47.8577C109.35 47.8577 111.326 47.3309 112.643 46.2772L111.107 42.3697ZM124.728 47.8577C132.016 47.8577 137.241 42.8527 137.241 35.828C137.241 28.8033 132.016 23.8422 124.728 23.8422C117.528 23.8422 112.259 28.8033 112.259 35.828C112.259 42.8527 117.528 47.8577 124.728 47.8577ZM124.728 43.16C120.776 43.16 117.791 40.3062 117.791 35.828C117.791 31.3498 120.776 28.496 124.728 28.496C128.723 28.496 131.709 31.3498 131.709 35.828C131.709 40.3062 128.723 43.16 124.728 43.16ZM145.518 27.5301V24.1056H140.293V47.5504H145.781V36.1792C145.781 31.3937 148.415 28.935 152.586 28.935C152.982 28.935 153.377 28.9789 153.86 29.0667V23.8422C149.952 23.8422 147.098 25.0715 145.518 27.5301Z" fill="#0D102E"/>
<path d="M17.6137 6.02333C15.5701 6.02333 13.5724 6.62932 11.8733 7.76465C10.1741 8.89999 8.8498 10.5137 8.06776 12.4017C7.28573 14.2897 7.08111 16.3672 7.47979 18.3715C7.87847 20.3758 8.86253 22.2168 10.3075 23.6618C11.7526 25.1069 13.5936 26.0909 15.5979 26.4896C17.6022 26.8883 19.6797 26.6837 21.5677 25.9016C23.4557 25.1196 25.0694 23.7953 26.2047 22.0961C27.3401 20.397 27.9461 18.3993 27.9461 16.3557C27.9458 13.6155 26.8572 10.9875 24.9195 9.04986C22.9819 7.11221 20.3539 6.02355 17.6137 6.02333V6.02333ZM10.3427 16.3557C10.3427 16.5587 10.2621 16.7534 10.1185 16.8969C9.975 17.0405 9.78033 17.1211 9.57734 17.1211C9.37436 17.1211 9.17968 17.0405 9.03615 16.8969C8.89262 16.7534 8.81198 16.5587 8.81198 16.3557C8.81491 14.0223 9.74317 11.7852 11.3932 10.1352C13.0432 8.48525 15.2802 7.55699 17.6137 7.55406C17.8166 7.55406 18.0113 7.63469 18.1549 7.77823C18.2984 7.92176 18.379 8.11643 18.379 8.31942C18.379 8.52241 18.2984 8.71708 18.1549 8.86061C18.0113 9.00415 17.8166 9.08478 17.6137 9.08478C15.6858 9.08652 13.8374 9.85313 12.4742 11.2163C11.1111 12.5795 10.3444 14.4279 10.3427 16.3557V16.3557ZM12.6388 16.3557C12.6388 15.3718 12.9306 14.41 13.4772 13.5919C14.0239 12.7737 14.8008 12.1361 15.7099 11.7596C16.6189 11.383 17.6192 11.2845 18.5842 11.4765C19.5492 11.6684 20.4357 12.1422 21.1314 12.838C21.8272 13.5337 22.301 14.4202 22.4929 15.3852C22.6849 16.3502 22.5864 17.3505 22.2098 18.2595C21.8333 19.1686 21.1957 19.9455 20.3775 20.4922C19.5594 21.0388 18.5976 21.3306 17.6137 21.3306C16.2947 21.3291 15.0302 20.8045 14.0975 19.8719C13.1649 18.9392 12.6403 17.6747 12.6388 16.3557V16.3557ZM17.6137 25.1574C17.4107 25.1574 17.216 25.0768 17.0725 24.9332C16.9289 24.7897 16.8483 24.595 16.8483 24.392C16.8483 24.1891 16.9289 23.9944 17.0725 23.8509C17.216 23.7073 17.4107 23.6267 17.6137 23.6267C19.5415 23.6249 21.3899 22.8583 22.7531 21.4951C24.1163 20.132 24.8829 18.2836 24.8846 16.3557C24.8846 16.1527 24.9652 15.9581 25.1088 15.8145C25.2523 15.671 25.447 15.5904 25.65 15.5904C25.853 15.5904 26.0476 15.671 26.1912 15.8145C26.3347 15.9581 26.4153 16.1527 26.4153 16.3557C26.4124 18.6892 25.4841 20.9262 23.8341 22.5762C22.1841 24.2262 19.9471 25.1545 17.6137 25.1574V25.1574Z" fill="#0D102E"/>
<path d="M19.5269 16.3557C19.5267 15.8483 19.3251 15.3617 18.9663 15.0029C18.6075 14.6441 18.1209 14.4425 17.6135 14.4423C17.1659 14.4434 16.7333 14.6034 16.3927 14.8939C16.4605 14.86 16.5351 14.8417 16.6109 14.8403C16.7248 14.8366 16.8368 14.8709 16.9291 14.9377C17.0215 15.0045 17.0891 15.1001 17.1212 15.2095C17.1533 15.3189 17.1482 15.4359 17.1067 15.5421C17.0651 15.6483 16.9895 15.7376 16.8917 15.7962C16.7938 15.8547 16.6793 15.8791 16.5661 15.8655C16.4529 15.8519 16.3474 15.801 16.2663 15.721C16.1851 15.6409 16.1328 15.5362 16.1176 15.4232C16.1024 15.3102 16.1251 15.1954 16.1823 15.0967C15.978 15.3288 15.8332 15.607 15.7601 15.9074C15.6871 16.2077 15.6881 16.5214 15.7629 16.8213C15.8378 17.1213 15.9843 17.3986 16.1899 17.6294C16.3955 17.8603 16.6541 18.0377 16.9434 18.1467C17.2328 18.2556 17.5442 18.2926 17.851 18.2547C18.1578 18.2167 18.4508 18.1049 18.7049 17.9288C18.959 17.7526 19.1665 17.5175 19.3097 17.2435C19.4528 16.9695 19.5274 16.6649 19.5269 16.3557V16.3557Z" fill="#0D102E"/>
<circle cx="17.5967" cy="16.339" r="13.6992" stroke="#0D102E" stroke-width="3.301"/>
<path d="M0.930664 28.9547C0.930664 28.3622 1.41098 27.8819 2.00349 27.8819H5.75211C6.34462 27.8819 6.82494 28.3622 6.82494 28.9547V45.3878C6.82494 46.2993 6.08598 47.0383 5.17444 47.0383H2.58117C1.66962 47.0383 0.930664 46.2993 0.930664 45.3878V28.9547Z" fill="#0D102E"/>
<rect x="2.24707" y="17.0817" width="3.301" height="11.636" fill="#0D102E"/>
<rect x="156.146" y="16.3389" width="73.4328" height="34.6289" rx="3.19273" fill="url(#paint0_linear)"/>
<path d="M189.338 22.737C185.606 22.737 182.445 24.2297 180.557 26.6444C178.933 24.0102 176.079 22.737 172.654 22.737C169.449 22.737 166.727 23.8785 164.971 25.9859V23.0004H159.747V46.4452H165.235V34.5472C165.235 29.8934 167.693 27.5225 171.337 27.5225C174.674 27.5225 176.606 29.5421 176.606 33.713V46.4452H182.094V34.5472C182.094 29.8934 184.596 27.5225 188.197 27.5225C191.533 27.5225 193.465 29.5421 193.465 33.713V46.4452H198.953V33.0105C198.953 25.942 195.002 22.737 189.338 22.737ZM226.025 34.8545C226.025 27.5225 221.02 22.737 214.171 22.737C207.19 22.737 202.053 27.742 202.053 34.7228C202.053 41.7036 207.146 46.7526 215.005 46.7526C219.044 46.7526 222.337 45.4354 224.445 42.9329L221.503 39.5523C219.835 41.2645 217.771 42.0987 215.137 42.0987C211.054 42.0987 208.2 39.9035 207.541 36.479H225.937C225.981 35.9521 226.025 35.2936 226.025 34.8545ZM214.171 27.1274C217.771 27.1274 220.361 29.4543 220.801 32.8349H207.498C208.024 29.4104 210.615 27.1274 214.171 27.1274Z" fill="white"/>
<defs>
<linearGradient id="paint0_linear" x1="192.862" y1="16.3389" x2="192.862" y2="50.9678" gradientUnits="userSpaceOnUse">
<stop stop-color="#FD9F57"/>
<stop offset="1" stop-color="#FB562F" stop-opacity="0.88"/>
</linearGradient>
</defs>
</svg>
