<svg width="40" height="41" viewBox="0 0 40 41" fill="none" xmlns="http://www.w3.org/2000/svg">
<path d="M20 0.200439C9 0.200439 0 9.18885 0 20.1747C0 31.1605 9 40.1489 20 40.1489C31 40.1489 40 31.1605 40 20.1747C40 9.18885 31 0.200439 20 0.200439ZM20 5.194C23.3 5.194 26.3 6.24265 28.75 7.99039L7.8 28.9134C6.05 26.4666 5 23.4704 5 20.1747C5 11.8854 11.7 5.194 20 5.194ZM32.2 11.436C33.95 13.8828 35 16.8789 35 20.1747C35 28.464 28.3 35.1554 20 35.1554C16.7 35.1554 13.7 34.1067 11.25 32.359L32.2 11.436Z" fill="#233B55"/>
</svg>
