<svg width="26" height="27" viewBox="0 0 26 27" fill="none" xmlns="http://www.w3.org/2000/svg">
<path d="M14.7297 0C15.1843 0.0113225 15.5708 0.169837 15.889 0.475543C16.1959 0.792572 16.355 1.17754 16.3663 1.63043V24.4565C16.355 24.9094 16.1959 25.2944 15.889 25.6114C15.5708 25.9171 15.1843 26.0756 14.7297 26.087H1.63663C1.18201 26.0756 0.795586 25.9171 0.477352 25.6114C0.170483 25.2944 0.0113655 24.9094 0 24.4565V1.63043C0.0113655 1.17754 0.170483 0.792572 0.477352 0.475543C0.795586 0.169837 1.18201 0.0113225 1.63663 0H14.7297ZM7.36485 1.63043C7.13754 1.63043 6.94433 1.70969 6.78521 1.86821C6.62609 2.02672 6.54654 2.2192 6.54654 2.44565C6.54654 2.6721 6.62609 2.86458 6.78521 3.0231C6.94433 3.18161 7.13754 3.26087 7.36485 3.26087H9.00149C9.2288 3.26087 9.42201 3.18161 9.58113 3.0231C9.74025 2.86458 9.8198 2.6721 9.8198 2.44565C9.8198 2.2192 9.74025 2.02672 9.58113 1.86821C9.42201 1.70969 9.2288 1.63043 9.00149 1.63043H7.36485ZM9.00149 24.4565C9.2288 24.4565 9.42201 24.3773 9.58113 24.2188C9.74025 24.0602 9.8198 23.8678 9.8198 23.6413C9.8198 23.4149 9.74025 23.2224 9.58113 23.0639C9.42201 22.9053 9.2288 22.8261 9.00149 22.8261H7.36485C7.13754 22.8261 6.94433 22.9053 6.78521 23.0639C6.62609 23.2224 6.54654 23.4149 6.54654 23.6413C6.54654 23.8678 6.62609 24.0602 6.78521 24.2188C6.94433 24.3773 7.13754 24.4565 7.36485 24.4565H9.00149ZM14.7297 21.1957V4.8913H1.63663V21.1957H14.7297ZM22.5378 6.89538C24.2426 8.68433 25.0951 10.7337 25.0951 13.0435C25.0951 15.3533 24.2426 17.4026 22.5378 19.1916C22.3105 19.3954 22.0548 19.4973 21.7706 19.4973C21.4751 19.4973 21.2194 19.3897 21.0035 19.1746C20.7762 18.9481 20.6625 18.699 20.6625 18.4273C20.6625 18.1442 20.7762 17.8895 21.0035 17.663C22.2764 16.327 22.9129 14.7871 22.9129 13.0435C22.9129 11.2998 22.2764 9.75996 21.0035 8.42391C20.7762 8.19746 20.6625 7.94271 20.6625 7.65965C20.6625 7.38791 20.7762 7.13881 21.0035 6.91236C21.2194 6.69724 21.4751 6.58967 21.7706 6.58967C22.0548 6.58967 22.3105 6.69158 22.5378 6.89538ZM19.4691 9.95245C20.3102 10.8582 20.7307 11.8886 20.7307 13.0435C20.7307 14.1984 20.3102 15.2287 19.4691 16.1345C19.2418 16.3383 18.9804 16.4402 18.6849 16.4402C18.3894 16.4402 18.1337 16.3327 17.9177 16.1175C17.7018 15.9024 17.5938 15.6476 17.5938 15.3533C17.5938 15.0589 17.6961 14.7985 17.9007 14.572C18.3326 14.1418 18.5485 13.6322 18.5485 13.0435C18.5485 12.4547 18.3326 11.9452 17.9007 11.5149C17.6961 11.2998 17.5938 11.0394 17.5938 10.7337C17.5938 10.4393 17.7018 10.1846 17.9177 9.96943C18.1337 9.7543 18.3894 9.64674 18.6849 9.64674C18.9804 9.64674 19.2418 9.74864 19.4691 9.95245Z" fill="white"/>
</svg>
