<svg width="26" height="19" viewBox="0 0 26 19" fill="none" xmlns="http://www.w3.org/2000/svg">
<path d="M23.8422 0.00822968C23.7353 -0.00274323 23.6276 -0.00274323 23.5207 0.00822968H1.56253C1.4218 0.0103899 1.282 0.031412 1.1469 0.0707296L12.4789 11.3129L23.8422 0.00822968Z" fill="white"/>
<path d="M25.0009 1.09424L13.5827 12.4224C13.2888 12.7134 12.8913 12.8767 12.4769 12.8767C12.0626 12.8767 11.6651 12.7134 11.3712 12.4224L0.0548955 1.18018C0.020107 1.30755 0.00166152 1.43881 0 1.5708V17.1958C0 17.6102 0.165246 18.0076 0.459386 18.3007C0.753525 18.5937 1.15246 18.7583 1.56844 18.7583H23.5266C23.9426 18.7583 24.3415 18.5937 24.6357 18.3007C24.9298 18.0076 25.0951 17.6102 25.0951 17.1958V1.5708C25.0888 1.40803 25.0571 1.24723 25.0009 1.09424ZM2.64282 17.1958H1.55276V16.0786L7.25404 10.4458L8.35979 11.5474L2.64282 17.1958ZM23.5109 17.1958H22.413L16.6961 11.5474L17.8018 10.4458L23.5031 16.0786L23.5109 17.1958Z" fill="white"/>
</svg>
