<svg width="25" height="25" viewBox="0 0 25 25" fill="none" xmlns="http://www.w3.org/2000/svg">
<g clip-path="url(#clip0)">
<path d="M24.2087 22.6377L22.5 17.5872H20.625L21.6662 22.5121H3.33373L4.37498 17.5872H2.49998L0.789983 22.6377C0.356233 23.9231 1.12498 24.9746 2.49998 24.9746H22.5C23.875 24.9746 24.6437 23.9231 24.2087 22.6377ZM18.75 6.50621C18.75 4.87351 18.0915 3.30768 16.9194 2.15318C15.7473 0.998687 14.1576 0.350098 12.5 0.350098C10.8424 0.350098 9.25267 0.998687 8.08056 2.15318C6.90846 3.30768 6.24998 4.87351 6.24998 6.50621C6.24998 12.3853 12.5 18.8184 12.5 18.8184C12.5 18.8184 18.75 12.3853 18.75 6.50621ZM9.12498 6.58009C9.12498 4.74433 10.635 3.25702 12.5 3.25702C13.3949 3.25702 14.2532 3.60719 14.886 4.2305C15.5188 4.85381 15.8744 5.69921 15.8744 6.5807C15.8744 7.4622 15.5188 8.30759 14.886 8.9309C14.2532 9.55422 13.3949 9.90439 12.5 9.90439C11.6049 9.90439 10.7464 9.55415 10.1135 8.93072C9.48056 8.3073 9.12498 7.46175 9.12498 6.58009Z" fill="white"/>
</g>
<defs>
<clipPath id="clip0">
<rect width="25" height="24.6245" fill="white" transform="translate(0 0.350098)"/>
</clipPath>
</defs>
</svg>
