<svg width="234" height="60" viewBox="0 0 234 60" fill="none" xmlns="http://www.w3.org/2000/svg">
<path d="M37.314 26.794V23.3695H32.0894V46.8143H37.5774V35.4431C37.5774 30.6576 40.2117 28.1989 44.3826 28.1989C44.7777 28.1989 45.1728 28.2428 45.6558 28.3306V23.106C41.7483 23.106 38.8945 24.3354 37.314 26.794ZM58.4388 47.1216C65.7268 47.1216 70.9514 42.1165 70.9514 35.0919C70.9514 28.0672 65.7268 23.106 58.4388 23.106C51.2385 23.106 45.97 28.0672 45.97 35.0919C45.97 42.1165 51.2385 47.1216 58.4388 47.1216ZM58.4388 42.4239C54.4874 42.4239 51.5019 39.5701 51.5019 35.0919C51.5019 30.6136 54.4874 27.7599 58.4388 27.7599C62.434 27.7599 65.4195 30.6136 65.4195 35.0919C65.4195 39.5701 62.434 42.4239 58.4388 42.4239ZM84.7607 47.1216C89.3267 47.1216 92.9707 45.1459 94.7708 41.6336L90.556 39.175C89.1511 41.4141 87.0437 42.4239 84.7168 42.4239C80.6776 42.4239 77.6043 39.6579 77.6043 35.0919C77.6043 30.5697 80.6776 27.7599 84.7168 27.7599C87.0437 27.7599 89.1511 28.7697 90.556 31.0088L94.7708 28.5502C92.9707 24.9939 89.3267 23.106 84.7607 23.106C77.3409 23.106 72.0724 28.0672 72.0724 35.0919C72.0724 42.1165 77.3409 47.1216 84.7607 47.1216ZM110.176 41.6336C109.342 42.2922 108.245 42.5995 107.103 42.5995C104.996 42.5995 103.854 41.3702 103.854 39.0872V27.9355H110.132V23.5451H103.854V18.1888H98.3662V23.5451H94.5026V27.9355H98.3662V39.2189C98.3662 44.3996 101.308 47.1216 106.445 47.1216C108.42 47.1216 110.396 46.5948 111.713 45.5411L110.176 41.6336ZM123.798 47.1216C131.086 47.1216 136.31 42.1165 136.31 35.0919C136.31 28.0672 131.086 23.106 123.798 23.106C116.597 23.106 111.329 28.0672 111.329 35.0919C111.329 42.1165 116.597 47.1216 123.798 47.1216ZM123.798 42.4239C119.846 42.4239 116.861 39.5701 116.861 35.0919C116.861 30.6136 119.846 27.7599 123.798 27.7599C127.793 27.7599 130.778 30.6136 130.778 35.0919C130.778 39.5701 127.793 42.4239 123.798 42.4239ZM144.588 26.794V23.3695H139.363V46.8143H144.851V35.4431C144.851 30.6576 147.485 28.1989 151.656 28.1989C152.051 28.1989 152.446 28.2428 152.929 28.3306V23.106C149.022 23.106 146.168 24.3354 144.588 26.794Z" fill="white"/>
<path d="M16.6825 5.28717C14.6389 5.28717 12.6413 5.89316 10.9421 7.02849C9.24297 8.16383 7.91864 9.77753 7.13661 11.6655C6.35457 13.5535 6.14996 15.631 6.54864 17.6353C6.94731 19.6396 7.93138 21.4807 9.37639 22.9257C10.8214 24.3707 12.6625 25.3548 14.6668 25.7534C16.671 26.1521 18.7485 25.9475 20.6365 25.1655C22.5245 24.3834 24.1382 23.0591 25.2736 21.36C26.4089 19.6608 27.0149 17.6631 27.0149 15.6196C27.0147 12.8793 25.926 10.2514 23.9884 8.3137C22.0507 6.37605 19.4228 5.28739 16.6825 5.28717V5.28717ZM9.41156 15.6196C9.41156 15.8226 9.33092 16.0172 9.18739 16.1608C9.04385 16.3043 8.84918 16.3849 8.64619 16.3849C8.4432 16.3849 8.24853 16.3043 8.105 16.1608C7.96146 16.0172 7.88083 15.8226 7.88083 15.6196C7.88376 13.2861 8.81202 11.0491 10.462 9.39909C12.112 7.74909 14.3491 6.82083 16.6825 6.8179C16.8855 6.8179 17.0802 6.89853 17.2237 7.04207C17.3672 7.1856 17.4479 7.38027 17.4479 7.58326C17.4479 7.78625 17.3672 7.98092 17.2237 8.12445C17.0802 8.26799 16.8855 8.34862 16.6825 8.34862C14.7547 8.35036 12.9063 9.11697 11.5431 10.4802C10.1799 11.8433 9.4133 13.6917 9.41156 15.6196V15.6196ZM11.7076 15.6196C11.7076 14.6356 11.9994 13.6738 12.5461 12.8557C13.0927 12.0376 13.8697 11.3999 14.7787 11.0234C15.6877 10.6469 16.688 10.5483 17.6531 10.7403C18.6181 10.9323 19.5045 11.4061 20.2003 12.1018C20.896 12.7976 21.3698 13.684 21.5618 14.649C21.7537 15.6141 21.6552 16.6143 21.2787 17.5234C20.9021 18.4324 20.2645 19.2094 19.4464 19.756C18.6283 20.3027 17.6664 20.5944 16.6825 20.5944C15.3635 20.593 14.099 20.0684 13.1664 19.1357C12.2337 18.2031 11.7091 16.9385 11.7076 15.6196V15.6196ZM16.6825 24.4213C16.4795 24.4213 16.2848 24.3406 16.1413 24.1971C15.9978 24.0535 15.9171 23.8589 15.9171 23.6559C15.9171 23.4529 15.9978 23.2582 16.1413 23.1147C16.2848 22.9712 16.4795 22.8905 16.6825 22.8905C18.6103 22.8888 20.4587 22.1222 21.8219 20.759C23.1851 19.3958 23.9517 17.5474 23.9535 15.6196C23.9535 15.4166 24.0341 15.2219 24.1776 15.0784C24.3212 14.9348 24.5158 14.8542 24.7188 14.8542C24.9218 14.8542 25.1165 14.9348 25.26 15.0784C25.4035 15.2219 25.4842 15.4166 25.4842 15.6196C25.4813 17.953 24.553 20.1901 22.903 21.8401C21.253 23.4901 19.016 24.4183 16.6825 24.4213V24.4213Z" fill="white"/>
<path d="M18.5962 15.6196C18.596 15.1122 18.3944 14.6256 18.0356 14.2668C17.6768 13.908 17.1902 13.7064 16.6828 13.7062C16.2352 13.7073 15.8026 13.8673 15.4621 14.1578C15.5299 14.1239 15.6044 14.1056 15.6802 14.1042C15.7941 14.1005 15.9061 14.1348 15.9985 14.2016C16.0908 14.2684 16.1584 14.364 16.1905 14.4734C16.2227 14.5828 16.2176 14.6998 16.176 14.806C16.1345 14.9121 16.0589 15.0015 15.961 15.06C15.8632 15.1186 15.7487 15.1429 15.6355 15.1293C15.5223 15.1157 15.4168 15.0649 15.3356 14.9849C15.2544 14.9048 15.2021 14.8001 15.1869 14.6871C15.1717 14.5741 15.1944 14.4592 15.2516 14.3606C15.0474 14.5927 14.9025 14.8708 14.8295 15.1712C14.7564 15.4716 14.7574 15.7853 14.8322 16.0852C14.9071 16.3851 15.0536 16.6624 15.2593 16.8933C15.4649 17.1241 15.7235 17.3016 16.0128 17.4105C16.3021 17.5195 16.6135 17.5565 16.9203 17.5186C17.2271 17.4806 17.5202 17.3688 17.7742 17.1927C18.0283 17.0165 18.2358 16.7814 18.379 16.5074C18.5222 16.2334 18.5967 15.9287 18.5962 15.6196V15.6196Z" fill="white"/>
<circle cx="16.6661" cy="15.6028" r="13.6992" stroke="white" stroke-width="3.301"/>
<path d="M0 28.2186C0 27.6261 0.480321 27.1458 1.07283 27.1458H4.82145C5.41395 27.1458 5.89428 27.6261 5.89428 28.2186V44.6517C5.89428 45.5632 5.15532 46.3022 4.24377 46.3022H1.6505C0.738956 46.3022 0 45.5632 0 44.6517V28.2186Z" fill="white"/>
<rect x="1.31641" y="16.3456" width="3.301" height="11.636" fill="white"/>
<rect x="155.216" y="15.6028" width="73.4328" height="34.6289" rx="3.19273" fill="url(#paint0_linear)"/>
<path d="M188.408 22.0009C184.676 22.0009 181.515 23.4936 179.628 25.9083C178.003 23.2741 175.149 22.0009 171.725 22.0009C168.52 22.0009 165.798 23.1424 164.042 25.2498V22.2643H158.817V45.7091H164.305V33.8111C164.305 29.1573 166.764 26.7864 170.408 26.7864C173.744 26.7864 175.676 28.806 175.676 32.9769V45.7091H181.164V33.8111C181.164 29.1573 183.667 26.7864 187.267 26.7864C190.604 26.7864 192.535 28.806 192.535 32.9769V45.7091H198.023V32.2744C198.023 25.2059 194.072 22.0009 188.408 22.0009ZM225.095 34.1184C225.095 26.7864 220.09 22.0009 213.241 22.0009C206.261 22.0009 201.124 27.0059 201.124 33.9867C201.124 40.9675 206.217 46.0165 214.075 46.0165C218.115 46.0165 221.407 44.6993 223.515 42.1968L220.573 38.8162C218.905 40.5284 216.841 41.3626 214.207 41.3626C210.124 41.3626 207.27 39.1674 206.612 35.7429H225.008C225.052 35.216 225.095 34.5575 225.095 34.1184ZM213.241 26.3913C216.841 26.3913 219.432 28.7182 219.871 32.0988H206.568C207.095 28.6743 209.685 26.3913 213.241 26.3913Z" fill="white"/>
<defs>
<linearGradient id="paint0_linear" x1="191.933" y1="15.6028" x2="191.933" y2="50.2317" gradientUnits="userSpaceOnUse">
<stop stop-color="#FD9F57"/>
<stop offset="1" stop-color="#FB562F" stop-opacity="0.88"/>
</linearGradient>
</defs>
</svg>
