<svg width="21" height="20" viewBox="0 0 21 20" fill="none" xmlns="http://www.w3.org/2000/svg">
<path d="M15.4415 8.70889C15.4415 11.4264 13.1994 13.6294 10.4337 13.6294C7.66793 13.6294 5.42583 11.4264 5.42583 8.70889C5.42583 7.94314 5.60902 7.22122 5.92634 6.5752H0.395386V18.082C0.395386 19.1368 1.27371 19.9999 2.34722 19.9999H18.5196C19.5931 19.9999 20.4714 19.1368 20.4714 18.082V6.5752H14.9408C15.2697 7.24009 15.4409 7.96961 15.4415 8.70889Z" fill="white"/>
<path d="M18.5196 0H2.34722C1.27371 0 0.395386 0.863014 0.395386 1.91781V5.75343H6.43632C7.35034 4.56192 8.79805 3.78849 10.4334 3.78849C12.0688 3.78849 13.5165 4.56192 14.4305 5.75343H20.4714V1.91781C20.4714 0.863014 19.5931 0 18.5196 0ZM2.00035 4.8537H1.27371V2.08795C1.27369 1.8584 1.34267 1.63397 1.47199 1.4428C1.60131 1.25164 1.78522 1.10226 2.00063 1.01342V4.8537H2.00035ZM3.19097 4.8537H2.50253V0.92274H3.19097V4.8537ZM4.38132 4.8537H3.69288V0.92274H4.38132V4.8537ZM5.57082 2.08795V4.8537H4.88322V0.92274H5.57082V2.08795ZM19.454 3.68849C19.454 3.84147 19.4234 3.99296 19.3638 4.13432C19.3043 4.27566 19.217 4.40411 19.1069 4.51231C18.9968 4.6205 18.8662 4.70634 18.7223 4.76492C18.5785 4.8235 18.4243 4.85366 18.2686 4.8537H16.3422C16.1865 4.8537 16.0323 4.82356 15.8884 4.765C15.7445 4.70644 15.6138 4.6206 15.5037 4.5124C15.3936 4.4042 15.3063 4.27575 15.2467 4.13438C15.1872 3.99301 15.1565 3.8415 15.1566 3.68849V2.08795C15.1565 1.93494 15.1872 1.78343 15.2467 1.64206C15.3063 1.50069 15.3936 1.37224 15.5037 1.26404C15.6138 1.15583 15.7445 1.07 15.8884 1.01144C16.0323 0.952881 16.1865 0.92274 16.3422 0.92274H18.2686C18.4243 0.92274 18.5785 0.952883 18.7224 1.01145C18.8662 1.07001 18.9969 1.15585 19.107 1.26405C19.2171 1.37226 19.3044 1.50072 19.3639 1.64208C19.4234 1.78345 19.454 1.93495 19.454 2.08795V3.68849Z" fill="white"/>
<path d="M10.4336 13.054C12.8695 13.054 14.8442 11.1129 14.8442 8.71999C14.8442 6.32684 12.8698 4.38574 10.4336 4.38574C7.99716 4.38574 6.02246 6.32684 6.02246 8.71999C6.02246 11.1126 7.99716 13.054 10.4336 13.054ZM10.4333 5.26684C12.374 5.26684 13.9478 6.81287 13.9478 8.71999C13.9478 10.6268 12.3743 12.1731 10.4333 12.1731C8.49237 12.1731 6.91891 10.6271 6.91891 8.71999C6.91919 6.81259 8.49265 5.26684 10.4333 5.26684Z" fill="white"/>
</svg>
