<svg width="26" height="27" viewBox="0 0 26 27" fill="none" xmlns="http://www.w3.org/2000/svg">
<path d="M24.966 23.9075L23.1537 18.4899H21.1651L22.2695 23.7728H2.8263L3.93063 18.4899H1.94203L0.128435 23.9075C-0.331593 25.2863 0.483731 26.4142 1.94203 26.4142H23.1537C24.612 26.4142 25.4274 25.2863 24.966 23.9075ZM19.1765 6.60354C19.1765 4.85217 18.4782 3.17254 17.235 1.93413C15.9919 0.695728 14.3059 0 12.5479 0C10.7899 0 9.10383 0.695728 7.86071 1.93413C6.6176 3.17254 5.91923 4.85217 5.91923 6.60354C5.91923 12.9099 12.5479 19.8106 12.5479 19.8106C12.5479 19.8106 19.1765 12.9099 19.1765 6.60354ZM8.96841 6.68279C8.96841 4.71361 10.5699 3.11819 12.5479 3.11819C13.497 3.11819 14.4073 3.49382 15.0785 4.16243C15.7496 4.83105 16.1267 5.73788 16.1267 6.68345C16.1267 7.62901 15.7496 8.53585 15.0785 9.20446C14.4073 9.87307 13.497 10.2487 12.5479 10.2487C11.5985 10.2487 10.6881 9.87301 10.0168 9.20427C9.34553 8.53553 8.96841 7.62852 8.96841 6.68279Z" fill="white"/>
</svg>
