<svg width="23" height="39" viewBox="0 0 23 39" fill="none" xmlns="http://www.w3.org/2000/svg">
<path d="M11.5 34.6561C13.4891 34.6561 15.3968 33.8669 16.8033 32.4622C18.2098 31.0575 19 29.1523 19 27.1657C19 25.1791 18.2098 23.2739 16.8033 21.8692C15.3968 20.4645 13.4891 19.6754 11.5 19.6754C9.51086 19.6754 7.6032 20.4645 6.19668 21.8692C4.79016 23.2739 3.99998 25.1791 3.99998 27.1657C3.99998 29.1523 4.79016 31.0575 6.19668 32.4622C7.6032 33.8669 9.51086 34.6561 11.5 34.6561ZM3.99998 18.7915V8.43982C3.99998 6.45325 4.79016 4.54805 6.19668 3.14334C7.6032 1.73862 9.51086 0.949463 11.5 0.949463C13.4891 0.949463 15.3968 1.73862 16.8033 3.14334C18.2098 4.54805 19 6.45325 19 8.43982V10.3124C19 10.809 18.8024 11.2853 18.4508 11.6365C18.0992 11.9877 17.6223 12.185 17.125 12.185C16.6277 12.185 16.1508 11.9877 15.7992 11.6365C15.4475 11.2853 15.25 10.809 15.25 10.3124V8.43982C15.25 7.44654 14.8549 6.49394 14.1516 5.79158C13.4484 5.08922 12.4945 4.69464 11.5 4.69464C10.5054 4.69464 9.55159 5.08922 8.84833 5.79158C8.14507 6.49394 7.74998 7.44654 7.74998 8.43982V16.5687C10.3839 15.6375 13.2705 15.7184 15.848 16.7958C18.4254 17.8732 20.5092 19.8699 21.6936 22.3973C22.878 24.9247 23.0784 27.8018 22.2556 30.4686C21.4329 33.1353 19.6459 35.4009 17.2426 36.8242C14.8393 38.2476 11.9917 38.7268 9.25405 38.1686C6.51643 37.6104 4.08476 36.0547 2.43242 33.8045C0.780078 31.5542 0.0253201 28.7704 0.315079 25.995C0.604838 23.2195 1.91838 20.6511 3.99998 18.7896V18.7915ZM11.5 30.9109C10.5054 30.9109 9.55159 30.5163 8.84833 29.814C8.14507 29.1116 7.74998 28.159 7.74998 27.1657C7.74998 26.1724 8.14507 25.2198 8.84833 24.5175C9.55159 23.8151 10.5054 23.4205 11.5 23.4205C12.4945 23.4205 13.4484 23.8151 14.1516 24.5175C14.8549 25.2198 15.25 26.1724 15.25 27.1657C15.25 28.159 14.8549 29.1116 14.1516 29.814C13.4484 30.5163 12.4945 30.9109 11.5 30.9109Z" fill="#233B55"/>
</svg>
