<svg width="20" height="23" viewBox="0 0 20 23" fill="none" xmlns="http://www.w3.org/2000/svg">
<path d="M19.6323 17.9709L15.0686 13.2502C14.8529 13.0272 14.5694 12.9082 14.278 12.9185C13.9866 12.9287 13.7102 13.0674 13.507 13.3052L10.8204 16.4484C10.1737 16.3079 8.87366 15.8469 7.53543 14.3282C6.19719 12.8045 5.79191 11.3216 5.67178 10.591L8.43245 7.53333C8.64173 7.30231 8.76379 6.98772 8.7728 6.65613C8.78181 6.32454 8.67706 6.00197 8.48072 5.75669L4.33243 0.566001C4.13601 0.31995 3.86301 0.170702 3.57142 0.149954C3.27983 0.129206 2.99262 0.238592 2.77078 0.454882L0.33457 2.83182C0.140471 3.05344 0.02462 3.3484 0.0089928 3.66075C-0.00784737 3.98006 -0.328933 11.5439 4.8264 17.4115C9.32385 22.5268 14.9575 22.901 16.509 22.901C16.7358 22.901 16.875 22.8934 16.912 22.8908C17.1865 22.8733 17.4457 22.741 17.6395 22.5191L19.7277 19.7463C19.9186 19.4947 20.0154 19.1682 19.9976 18.8365C19.9798 18.5048 19.8487 18.1942 19.6323 17.9709Z" fill="white"/>
</svg>
