<svg width="39" height="35" viewBox="0 0 39 35" fill="none" xmlns="http://www.w3.org/2000/svg">
<path d="M30.75 13.875C30.75 11.8069 29.0681 10.125 27 10.125H24.3113L19.7775 2.57062C19.4434 2.01661 18.9721 1.55803 18.4092 1.23913C17.8463 0.920236 17.2107 0.751775 16.5638 0.75H6.375V4.5H16.5638L19.9388 10.125H4.5C2.43187 10.125 0.75 11.8069 0.75 13.875V30.75C0.75 32.8181 2.43187 34.5 4.5 34.5H27C29.0681 34.5 30.75 32.8181 30.75 30.75V25.125L38.25 28.875V15.75L30.75 19.5V13.875ZM27.0038 30.75H4.5V13.875H27L27.0019 21.375H27V23.25L27.0019 23.2519L27.0038 30.75Z" fill="#233B55"/>
</svg>
