<svg width="94" height="94" viewBox="0 0 94 94" fill="none" xmlns="http://www.w3.org/2000/svg">
<circle cx="47" cy="47" r="47" fill="#FFA012" fill-opacity="0.17"/>
<path d="M40.2 57.0385C40.2038 53.321 41.3076 49.6937 43.3634 46.6434C45.4192 43.5931 48.3285 41.2659 51.7008 39.9741C52.5382 38.0595 52.9807 35.9857 53 33.8846C53 25.665 53 19 43.4 19C33.8 19 33.8 25.665 33.8 33.8846C33.8 39.0049 36.6736 44.1219 40.2 46.176V48.9048C29.3456 49.8211 21 55.335 21 62H40.8656C40.4235 60.3858 40.1995 58.7161 40.2 57.0385Z" fill="#FFA012"/>
<path d="M58 42C54.0218 42 50.2064 43.5804 47.3934 46.3934C44.5804 49.2064 43 53.0218 43 57C43 60.9782 44.5804 64.7936 47.3934 67.6066C50.2064 70.4196 54.0218 72 58 72C61.9782 72 65.7936 70.4196 68.6066 67.6066C71.4196 64.7936 73 60.9782 73 57C73 53.0218 71.4196 49.2064 68.6066 46.3934C65.7936 43.5804 61.9782 42 58 42ZM66.3333 58.6667H59.6667V65.3333H56.3333V58.6667H49.6667V55.3333H56.3333V48.6667H59.6667V55.3333H66.3333V58.6667Z" fill="#FFA012"/>
</svg>
