<svg width="169" height="362" viewBox="0 0 169 362" fill="none" xmlns="http://www.w3.org/2000/svg">
<path d="M337.751 271.5C358.688 235.235 366.404 192.832 359.582 151.516C352.761 110.2 331.825 72.5273 300.342 44.917C268.858 17.3067 228.775 1.46703 186.922 0.0969098C145.069 -1.27321 104.036 11.911 70.8142 37.403C37.5923 62.8951 14.2372 99.1178 4.72827 139.899C-4.78062 180.681 0.145058 223.497 18.666 261.054C37.187 298.611 68.1573 328.584 106.3 345.866C144.443 363.149 187.398 366.671 227.846 355.833L215.127 308.363C185.661 316.258 154.369 313.692 126.582 301.103C98.7958 288.513 76.2344 266.678 62.7422 239.318C49.2499 211.959 45.6617 180.767 52.5887 151.059C59.5158 121.35 76.5297 94.9624 100.731 76.3918C124.933 57.8212 154.825 48.2168 185.314 49.2149C215.803 50.213 245.003 61.7519 267.939 81.8656C290.874 101.979 306.125 129.423 311.095 159.521C316.064 189.619 310.443 220.509 295.19 246.928L337.751 271.5Z" fill="#0D102E"/>
</svg>
