<svg width="94" height="94" viewBox="0 0 94 94" fill="none" xmlns="http://www.w3.org/2000/svg">
<circle cx="47" cy="47" r="47" fill="#22E111" fill-opacity="0.4"/>
<path d="M68.4124 30.982C68.2164 30.7575 67.9762 30.576 67.707 30.4488C67.4378 30.3216 67.1453 30.2515 66.8478 30.2429C62.2264 30.1217 56.3786 25.1659 52.5123 23.2211C50.1241 22.0235 48.5473 21.2339 47.3633 21.0259C47.1229 20.9907 46.8786 20.9914 46.6384 21.0279C45.4543 21.2359 43.8776 22.0255 41.4914 23.2231C37.6251 25.1659 31.7773 30.1217 27.1559 30.2429C26.8582 30.252 26.5655 30.3222 26.296 30.4494C26.0265 30.5765 25.786 30.7578 25.5892 30.982C25.1814 31.4448 24.971 32.0496 25.0032 32.6663C25.996 52.9079 33.2352 65.4349 45.9376 72.7152C46.2678 72.9031 46.6343 73 46.9988 73C47.3633 73 47.7298 72.9031 48.062 72.7152C60.7644 65.4349 68.0016 52.9079 68.9964 32.6663C69.0305 32.0497 68.8207 31.4444 68.4124 30.982ZM58.3117 38.943L47.5928 54.8062C47.2082 55.3757 46.6041 55.7534 46.0061 55.7534C45.406 55.7534 44.7394 55.4242 44.3186 55.0021L36.7632 47.4229C36.5165 47.1746 36.378 46.8384 36.378 46.4879C36.378 46.1374 36.5165 45.8011 36.7632 45.5528L38.6299 43.6767C38.878 43.4303 39.2131 43.2921 39.5622 43.2921C39.9114 43.2921 40.2465 43.4303 40.4946 43.6767L45.408 48.6043L53.944 35.9682C54.1415 35.6791 54.4451 35.48 54.7884 35.4146C55.1318 35.3491 55.487 35.4225 55.7765 35.6188L57.9614 37.1052C58.25 37.303 58.4489 37.6073 58.5145 37.9516C58.5802 38.2959 58.5073 38.6524 58.3117 38.943Z" fill="#22E111"/>
</svg>
