<svg width="46" height="36" viewBox="0 0 46 36" fill="none" xmlns="http://www.w3.org/2000/svg">
<path d="M41.4 0H9.19999C6.66309 0 4.59999 2.01825 4.59999 4.5V15.75H9.19999V9L23.92 19.8C24.3183 20.0917 24.8024 20.2494 25.3 20.2494C25.7975 20.2494 26.2817 20.0917 26.68 19.8L41.4 9V29.25H23V33.75H41.4C43.9369 33.75 46 31.7317 46 29.25V4.5C46 2.01825 43.9369 0 41.4 0ZM25.3 15.1875L10.7318 4.5H39.8682L25.3 15.1875Z" fill="#0D102E"/>
<path d="M0 18H16.1V22.5H0V18ZM4.6 24.75H18.4V29.25H4.6V24.75ZM11.5 31.5H20.7V36H11.5V31.5Z" fill="#0D102E"/>
</svg>
