<svg width="21" height="16" viewBox="0 0 21 16" fill="none" xmlns="http://www.w3.org/2000/svg">
<path d="M20.076 1.89525C19.517 2.71111 18.8311 3.40659 18.0184 3.98169C18.0264 4.13593 18.0304 4.31026 18.0304 4.50468C18.0304 5.58493 17.8699 6.66648 17.5489 7.74934C17.2278 8.8322 16.7374 9.8687 16.0776 10.8588C15.4179 11.8489 14.632 12.7261 13.7199 13.4903C12.8079 14.2545 11.7116 14.8638 10.431 15.3183C9.15037 15.7728 7.77792 16 6.31361 16C4.02831 16 1.92377 15.3947 0 14.1841C0.341447 14.2214 0.668923 14.24 0.982429 14.24C2.89161 14.24 4.59682 13.6631 6.09805 12.5092C5.20788 12.4932 4.41067 12.2243 3.70641 11.7027C3.00215 11.181 2.5175 10.5144 2.25245 9.70285C2.51443 9.75181 2.773 9.77629 3.02816 9.77629C3.39544 9.77629 3.75683 9.7293 4.11235 9.6353C3.16237 9.44864 2.37429 8.98442 1.74809 8.24266C1.12192 7.50092 0.80883 6.64479 0.80883 5.6743V5.62428C1.39193 5.94104 2.0139 6.10953 2.67473 6.12975C2.11197 5.76167 1.66579 5.28167 1.33618 4.68977C1.00655 4.09787 0.841739 3.45732 0.841739 2.76814C0.841739 2.04128 1.02738 1.36444 1.39868 0.737615C2.43176 1.98142 3.68355 2.97551 5.15406 3.71988C6.62459 4.46427 8.20218 4.87768 9.88685 4.96011C9.81499 4.66632 9.779 4.35973 9.77887 4.04035C9.77887 2.92519 10.1811 1.97301 10.9856 1.18381C11.79 0.394602 12.7606 0 13.8972 0C15.0872 0 16.0896 0.425125 16.9043 1.27537C17.8351 1.09448 18.7067 0.767285 19.519 0.293792C19.2061 1.26008 18.603 2.00551 17.7099 2.53008C18.5308 2.43438 19.3195 2.22277 20.076 1.89525H20.076Z" fill="white"/>
</svg>
